<svg width="300" height="300" viewBox="0 0 300 300" fill="none" xmlns="http://www.w3.org/2000/svg">
<path d="M149.494 118.141C146.457 112.446 146.176 105.421 152.823 102.091C160.313 98.3398 163.111 98.079 171.145 101.076C177.444 103.425 183.728 106.41 189.877 109.219C197.972 112.791 211.434 115.609 208.253 127.694C207.45 130.748 203.762 132.943 201.208 134.37C193.376 138.238 185.55 133.237 178.534 130.095C174.121 128.119 169.748 126.592 165.445 124.498C164.435 128.356 163.007 132.555 161.783 136.387C169.999 137.921 177.89 141.987 185.751 144.462C195.411 147.502 204.585 151.044 213.527 155.83C220.026 159.309 225.043 164.769 230.025 169.963C234.268 174.386 238.794 178.666 243.067 183.069C247.117 187.326 251.199 192.165 255.187 196.513C260.769 202.597 266.655 208.468 272.057 214.702C278.88 221.893 281.829 227.625 280.136 237.851C279.159 243.754 274.567 249.669 269.053 252.144C264.356 254.722 260.668 257.342 255.808 259.744C254.098 260.435 252.013 261.673 250.425 262.642C245.865 265.425 241.462 267.949 236.696 270.352C232.766 272.332 228.924 275.177 224.918 277.099C223.091 278.021 218.325 279.626 216.384 280.136C213.158 280.984 211.828 280.318 208.519 281.955C204.448 284.492 200.372 286.676 196.155 288.926C191.572 291.371 187.485 294.65 182.369 296.105C181.552 296.39 181.285 296.484 180.407 296.619C177.265 297.605 171.559 296.962 168.603 295.74C164.071 293.812 159.768 291.154 155.474 288.737C153.73 287.756 151.748 287.107 150.02 286.132C147.589 284.419 143.993 283.204 141.602 281.569C138.32 279.322 135.285 278.435 131.965 276.662L115.242 267.692C111.259 265.519 107.281 263.124 103.226 261.03C101.698 260.167 99.7359 259.622 98.2464 258.74C91.1968 254.567 83.6706 251.222 76.6946 246.954C75.0587 245.953 72.4455 243.63 71.6754 241.85C70.3736 238.843 71.0407 234.452 72.0201 231.414C73.2787 227.777 77.2504 225.709 80.4984 224.205C81.6283 223.682 82.7893 222.874 84.0579 222.289C86.0756 220.997 88.2859 219.849 90.4011 218.709C85.5223 215.659 82.26 210.956 80.6548 205.477C80.0908 202.691 79.8107 201.112 79.6596 198.214C79.4741 197.876 78.4298 197.089 78.0368 196.715C76.1224 194.9 75.2293 193.845 74.0644 191.514C73.1901 192.139 72.7929 192.379 71.8376 192.87C71.0301 193.742 68.6154 194.299 67.4569 194.113C64.8317 193.691 63.0266 192.064 61.4587 190.035C56.9091 182.743 65.5834 170.039 64.4961 168.205L63.6799 168.032C61.32 167.873 60.1736 167.219 58.2827 165.883C58.2007 165.405 58.1709 165.418 58.3074 164.961C58.6717 164.783 59.0002 164.636 59.3698 164.474L60.2539 164.911C61.1173 165.586 62.2461 165.841 63.3011 166.14C64.2611 166.129 64.8234 166.253 65.538 165.719C66.7343 162.499 64.7361 161.885 64.3187 158.957C63.9534 156.395 64.8287 154.092 66.4339 152.117C74.8789 141.125 86.2549 147.177 96.1809 151.991C97.0373 152.406 99.0075 153.529 99.9133 153.273C100.648 153.875 101.981 154.274 102.91 154.196C103.604 154.954 105.293 155.6 106.318 155.612L107.463 154.957L107.28 154.822L106.733 154.974L106.567 154.836C106.713 152.663 121.077 145.988 122.986 144.307C123.295 144.035 123.182 143.754 123.154 143.298L123.669 143.15C124.769 142.183 130.732 138.072 131.815 137.919L132.144 138.522C134.45 137.221 137.756 136.46 140.215 135.328C141.686 134.65 143.354 134.374 144.829 133.6C146.164 129.942 147.652 126.38 148.462 122.572C148.775 121.102 149.139 119.6 149.494 118.141Z" fill="#6ED8D9"/>
<path d="M92.7446 219.762C93.4324 219.975 94.1799 220.257 94.866 220.497L95.2359 220.679C100.362 222.405 105.333 224.211 110.496 225.863C116.818 227.886 122.982 230.552 129.328 232.628L129.603 233.052C130.53 232.795 131.852 233.397 132.946 233.582C139.624 234.715 149.744 238.442 156.366 236.89C156.539 236.894 156.711 236.897 156.884 236.903C159.299 238.928 161.317 241.343 163.729 243.407C165.51 244.995 166.9 247.234 168.528 248.659C171.811 251.53 174.471 254.44 177.459 257.552C180.059 260.26 182.465 261.674 184.655 264.942C184.844 265.215 184.856 265.285 185.101 265.499C187.933 268.435 190.972 271.274 193.796 274.214C196.627 277.163 201.191 279.205 205.067 280.275C205.734 280.454 206.974 280.682 207.525 280.95C208.322 281.432 208.063 281.164 208.519 281.955C204.448 284.492 200.372 286.677 196.155 288.927C191.572 291.372 187.485 294.651 182.369 296.106C181.552 296.391 181.285 296.485 180.407 296.62C177.265 297.606 171.559 296.963 168.603 295.74C164.071 293.813 159.768 291.154 155.474 288.737C153.73 287.757 151.748 287.108 150.02 286.133C147.589 284.419 143.993 283.204 141.602 281.569C138.32 279.323 135.285 278.436 131.965 276.662L115.242 267.692C111.259 265.519 107.281 263.125 103.226 261.03C101.698 260.168 99.7359 259.622 98.2464 258.741C91.1968 254.567 83.6705 251.222 76.6946 246.955C75.0587 245.954 72.4455 243.63 71.6754 241.851C70.3736 238.844 71.0407 234.452 72.02 231.415C73.2787 227.777 77.2504 225.709 80.4984 224.205C81.6283 223.682 82.7893 222.874 84.0579 222.289C84.9574 222.233 87.3572 221.449 88.0959 221.7C87.3448 222.377 86.2432 222.9 85.296 223.53L85.3633 223.795C87.4676 222.805 90.4603 220.95 92.7446 219.762Z" fill="#C5C2C1"/>
<path d="M129.328 232.628L129.603 233.052C130.53 232.795 131.852 233.397 132.946 233.582C139.624 234.715 149.744 238.442 156.366 236.89C156.539 236.894 156.711 236.897 156.884 236.903C159.299 238.928 161.318 241.343 163.729 243.407C165.51 244.995 166.901 247.234 168.528 248.659C171.811 251.53 174.471 254.44 177.459 257.552C180.059 260.26 182.465 261.674 184.655 264.942C184.844 265.215 184.856 265.285 185.101 265.499C183.759 266.344 182.49 267.102 181.147 267.852C179.978 268.506 175.733 270.169 175.129 270.81L173.973 271.42C172.562 272.151 171.036 272.637 169.461 272.856C169.001 273.124 167.671 273.077 167.228 272.865C164.95 271.772 159.44 269.734 157.63 268.24C153.755 266.048 149.615 263.545 145.746 261.454L130.418 253.247C128.518 252.24 126.611 251.4 124.736 250.354C124.274 249.889 123.995 249.762 123.848 249.192C123.543 248.487 123.482 248.299 123.333 247.547C123.334 246.964 123.316 245.438 123.531 244.999C125.455 241.052 127.373 236.507 129.328 232.628Z" fill="#A6A2A7"/>
<path d="M163.729 243.407C165.51 244.995 166.901 247.234 168.528 248.659C171.811 251.53 174.471 254.44 177.459 257.552C180.059 260.26 182.465 261.673 184.655 264.942C184.844 265.215 184.856 265.285 185.101 265.498C183.759 266.344 182.49 267.102 181.147 267.852C179.978 268.506 175.733 270.169 175.129 270.81L173.973 271.42C172.562 272.151 171.036 272.637 169.461 272.856C170.122 272.353 172.519 271.746 173.011 270.493C172.608 268.797 172.667 267.297 172.439 265.723C171.823 261.469 169.375 258.165 166.296 255.345C165.508 254.492 166.503 254.689 166.16 253.812C165.135 251.192 162.087 246.143 163.729 243.407Z" fill="#7D7D90"/>
<path d="M184.655 264.941C184.844 265.215 184.856 265.285 185.101 265.498C183.759 266.344 182.49 267.101 181.147 267.851C179.978 268.506 175.733 270.169 175.129 270.81L173.973 271.42C173.828 271.305 173.834 271.24 173.741 271.046C174.083 270.332 175.371 269.871 176.065 269.582C178.99 268.363 182.256 267.068 184.655 264.941Z" fill="#3C3C51"/>
<path d="M124.736 250.354C127.855 250.605 132.539 253.483 135.254 255.109C141.471 258.827 148.08 261.68 154.2 265.55C155.386 266.302 156.449 266.486 157.563 267.493C157.744 267.954 157.708 267.716 157.63 268.239C153.755 266.047 149.615 263.544 145.746 261.454L130.418 253.247C128.518 252.24 126.611 251.4 124.736 250.354Z" fill="#7D7D90"/>
<path d="M129.328 232.628L129.603 233.052C127.952 237.276 126.301 241.455 124.479 245.612C124.009 246.685 124.142 248.577 123.848 249.192C123.543 248.487 123.482 248.299 123.333 247.547C123.334 246.964 123.316 245.438 123.531 244.999C125.455 241.052 127.373 236.507 129.328 232.628Z" fill="#1C2031"/>
<path d="M185.101 265.498C187.933 268.434 190.972 271.273 193.796 274.213C196.627 277.162 201.191 279.204 205.067 280.275C205.734 280.453 206.974 280.682 207.525 280.95C208.322 281.432 208.063 281.164 208.519 281.955C204.448 284.492 200.372 286.676 196.155 288.926C191.573 291.371 187.485 294.651 182.369 296.106C181.552 296.391 181.285 296.484 180.407 296.619C179.606 296.597 179.14 296.627 178.509 296.151L178.61 295.798L179.281 295.509C177.449 295.519 175.034 295.612 173.268 295.395C175.441 294.156 178.705 296.711 179.735 294.135C180.376 292.532 180.296 289.875 180.29 288.165C181.381 285.825 186.197 287.43 186.974 283.774L186.794 283.571C185.575 283.779 182.346 286.826 180.491 286.798C179.629 286.783 177.296 287.542 176.713 287.351C177.827 286.862 179.753 286.785 181.066 286.312C183.973 285.266 186.857 283.041 189.435 281.274C187.708 279.799 175.604 271.596 175.129 270.81C175.733 270.169 179.978 268.506 181.147 267.851C182.49 267.101 183.759 266.344 185.101 265.498Z" fill="#7D7D90"/>
<path d="M182.944 294.413C186.514 292.168 190.547 290.194 194.203 288.045C195.709 287.162 197.571 286.495 199.136 285.623C201.911 284.08 204.662 282.306 207.525 280.95C208.322 281.432 208.063 281.164 208.519 281.955C204.448 284.492 200.372 286.676 196.155 288.926C191.572 291.371 187.485 294.651 182.369 296.106L183.166 295.382C183.296 294.793 183.316 295.039 182.944 294.413Z" fill="#1C2A35"/>
<path d="M179.281 295.509C180.846 295.254 181.488 295.031 182.944 294.412C183.316 295.038 183.296 294.793 183.166 295.381L182.369 296.105C181.552 296.39 181.285 296.484 180.407 296.619C179.606 296.596 179.14 296.626 178.509 296.15L178.61 295.798L179.281 295.509Z" fill="#010205"/>
<path d="M94.866 220.496L95.2359 220.678C100.362 222.405 105.333 224.21 110.496 225.862C116.818 227.885 122.982 230.552 129.328 232.627C127.373 236.507 125.455 241.052 123.531 244.999C123.316 245.437 123.334 246.964 123.333 247.547C123.089 246.53 123.168 245.707 123.202 244.667C118.011 240.995 114.637 241.749 108.621 241.489C105.208 241.34 99.8743 239.209 100.019 234.92C100.078 233.154 102.714 231.422 104.079 230.364C103.133 229.914 102.075 229.344 101.172 228.866C96.3519 226.32 96.291 225.18 94.866 220.496Z" fill="#81829A"/>
<path d="M84.0579 222.289C84.9574 222.232 87.3572 221.449 88.0959 221.7C87.3448 222.377 86.2432 222.9 85.296 223.53L85.3633 223.794C84.6182 224.426 82.7983 225.127 81.8173 225.594C77.4583 227.668 73.8227 229.719 73.1726 234.846C72.3245 240.559 73.1782 242.501 78.1618 245.58C84.1127 249.255 90.4852 251.959 96.5473 255.403C101.124 258.002 105.858 260.301 110.559 262.654C112.821 263.786 115.17 265.434 117.478 266.668L158.374 288.111C163.179 290.591 168.246 294.366 173.268 295.395C175.034 295.612 177.449 295.519 179.281 295.509L178.61 295.798L178.509 296.151C179.14 296.627 179.606 296.597 180.407 296.619C177.265 297.606 171.559 296.962 168.603 295.74C164.071 293.812 159.768 291.154 155.474 288.737C153.73 287.756 151.748 287.107 150.02 286.132C147.589 284.419 143.993 283.204 141.602 281.569C138.32 279.322 135.285 278.436 131.965 276.662L115.242 267.692C111.259 265.519 107.281 263.124 103.226 261.03C101.698 260.167 99.7359 259.622 98.2464 258.741C91.1968 254.567 83.6705 251.222 76.6946 246.954C75.0587 245.953 72.4455 243.63 71.6754 241.851C70.3736 238.843 71.0407 234.452 72.02 231.414C73.2787 227.777 77.2504 225.709 80.4984 224.205C81.6283 223.682 82.7893 222.874 84.0579 222.289Z" fill="#1B3342"/>
<path d="M76.1813 233.541C77.736 234.825 79.9388 235.765 81.6688 236.813C86.0595 239.475 90.8809 241.555 95.3348 244.022L122.257 258.687C124.028 259.632 126.235 260.425 127.91 261.422C130.721 263.097 133.388 264.76 136.346 266.218C137.759 266.892 139.413 268.281 140.827 268.866C144.188 270.257 147.062 272.185 150.238 273.865C154.292 276.008 158.505 277.947 162.657 279.891C164.588 280.797 166.466 282.087 168.405 283.011C169.928 283.772 172.399 284.807 173.742 285.608C173.803 286.099 173.7 286.041 173.341 286.589C168.454 285.807 160.738 280.114 155.803 278.204C154.265 277.607 151.925 276.383 150.396 275.59C130.999 265.324 111.711 254.852 92.5356 244.178C89.4821 242.515 77.2294 237.141 75.4978 234.645C75.4806 234.133 75.7208 234.072 76.1813 233.541Z" fill="#EAE6E2"/>
<path d="M63.3011 166.14C64.2611 166.129 64.8234 166.253 65.538 165.719C66.7343 162.499 64.7361 161.885 64.3187 158.957C63.9534 156.395 64.8287 154.092 66.4339 152.117C74.8789 141.125 86.2549 147.177 96.1809 151.991C97.0373 152.407 99.0075 153.529 99.9133 153.274C100.648 153.875 101.981 154.274 102.91 154.197C103.604 154.954 105.293 155.6 106.318 155.612C109.768 157.007 113.149 158.56 116.466 160.255C119.04 161.57 122.674 162.878 123.769 165.784C125.478 170.318 125.379 174.059 122.054 177.72C120.492 179.005 118.694 179.973 116.762 180.57C108.134 183.305 99.2301 178.171 91.4469 174.76C88.0744 173.282 84.0637 171.551 80.8204 169.883C80.2296 171.533 79.5022 173.575 79.1829 175.272C77.7979 179.4 76.3806 184.837 75.4963 189.03C76.2726 190.785 77.4139 193.776 78.9409 194.861C81.6094 196.86 83.4306 197.482 86.6546 198.247C88.8544 197.321 106.982 205.796 111.434 206.284C115.327 207.743 118.823 208.223 122.67 209.374C126.747 210.593 130.89 213.724 135.255 214.359C138.229 214.877 137.721 214.553 139.381 216.827C139.66 217.209 142.659 219.043 143.107 219.782C151.991 228.758 160.895 237.714 169.88 246.594C173.942 250.603 177.717 255.077 181.766 259.035L181.569 259.408C187.265 265.119 194.415 274.309 202.043 277.656C206.865 279.772 215.704 279.208 220.504 277.039C224.342 275.571 227.812 272.799 231.422 271.054C238.867 267.452 245.826 262.507 253.382 259.236L253.751 259.401C254.289 259.174 254.383 259.116 254.878 258.799L255.257 258.84L255.247 259.033C254.852 259.181 254.514 259.288 254.143 259.491L254.094 259.822C254.803 260.061 254.991 259.68 255.808 259.744C254.098 260.436 252.013 261.673 250.425 262.643C245.865 265.425 241.462 267.949 236.696 270.353C232.766 272.333 228.924 275.177 224.918 277.099C223.091 278.021 218.325 279.626 216.384 280.136C213.158 280.984 211.828 280.318 208.519 281.955C208.063 281.164 208.322 281.432 207.525 280.95C206.974 280.682 205.734 280.453 205.067 280.275C201.191 279.204 196.627 277.162 193.796 274.213C190.972 271.273 187.933 268.434 185.101 265.498C184.856 265.284 184.844 265.215 184.655 264.941C182.465 261.673 180.059 260.259 177.459 257.552C174.471 254.439 171.811 251.529 168.528 248.659C166.9 247.234 165.51 244.995 163.729 243.407C161.317 241.343 159.299 238.927 156.884 236.902C156.711 236.897 156.539 236.893 156.366 236.889C149.744 238.442 139.624 234.714 132.946 233.582C131.852 233.396 130.53 232.794 129.603 233.051L129.328 232.628C122.982 230.552 116.818 227.886 110.496 225.862C105.333 224.211 100.362 222.405 95.2359 220.678L94.866 220.496C94.1799 220.256 93.4324 219.975 92.7446 219.761C90.4603 220.95 87.4676 222.804 85.3633 223.794L85.296 223.53C86.2432 222.9 87.3448 222.377 88.0959 221.7C87.3572 221.449 84.9574 222.233 84.0579 222.289C86.0756 220.997 88.2859 219.849 90.4011 218.709C85.5223 215.659 82.26 210.956 80.6548 205.477C80.0908 202.691 79.8107 201.113 79.6596 198.214C79.4741 197.876 78.4298 197.089 78.0368 196.716C76.1224 194.901 75.2293 193.845 74.0644 191.514C73.1901 192.139 72.7929 192.379 71.8376 192.87C71.0301 193.742 68.6154 194.299 67.4569 194.113C64.8317 193.691 63.0266 192.064 61.4587 190.035C56.9091 182.744 65.5834 170.039 64.4961 168.205L63.6799 168.032C61.32 167.873 60.1736 167.219 58.2827 165.884C58.2007 165.405 58.1709 165.419 58.3074 164.961C58.6717 164.784 59.0002 164.636 59.3698 164.475L60.2539 164.911C61.1173 165.586 62.2461 165.842 63.3011 166.14Z" fill="#1D3E4E"/>
<path d="M87.8546 200.323C93.5261 201.988 99.1151 204.75 104.747 206.402C112.766 208.757 120.454 211.581 128.262 214.575C131.253 215.721 134.592 216.595 137.408 218.168C142.914 221.62 147.622 227.226 151.979 231.964C153.071 233.151 155.048 234.225 155.855 235.511L155.861 235.918L155.404 236.226L156.102 236.364C156.269 236.623 156.303 236.606 156.366 236.889C149.744 238.442 139.624 234.714 132.946 233.582C131.852 233.396 130.53 232.794 129.603 233.051L129.328 232.628C122.982 230.552 116.818 227.886 110.496 225.863C105.333 224.211 100.362 222.405 95.2359 220.678L94.866 220.496C94.1799 220.256 93.4323 219.975 92.7446 219.761C90.4603 220.95 87.4676 222.804 85.3633 223.794L85.296 223.53C86.2432 222.9 87.3448 222.377 88.0959 221.7C87.3572 221.449 84.9573 222.233 84.0579 222.289C86.0756 220.997 88.2859 219.849 90.401 218.709C85.5223 215.659 82.26 210.956 80.6548 205.478C80.9576 204.936 80.7418 205.088 81.2668 204.938C81.6658 205.116 81.9221 205.238 82.3537 205.331L82.6312 205.389L82.7156 205.508C84.2036 205.089 84.7562 200.353 87.6978 200.546L87.8546 200.323Z" fill="#9292A2"/>
<path d="M97.1481 220.142C109.91 224.538 143.412 237.54 155.404 236.225L156.102 236.364C156.269 236.623 156.303 236.606 156.366 236.889C149.744 238.442 139.624 234.714 132.946 233.582C131.852 233.396 130.53 232.794 129.603 233.051L129.328 232.627C122.982 230.552 116.819 227.885 110.496 225.862C105.333 224.21 100.362 222.405 95.236 220.678C96.1463 220.625 96.3634 220.646 97.1481 220.142Z" fill="#232730"/>
<path d="M80.6548 205.478C80.9576 204.936 80.7418 205.088 81.2668 204.938C81.6658 205.116 81.9221 205.237 82.3537 205.331L82.6312 205.389L82.7156 205.508C83.135 207.589 84.4119 209.908 85.3715 211.809C87.6656 216.353 92.4643 218.522 97.148 220.142C96.3633 220.646 96.1462 220.626 95.2359 220.678L94.866 220.496C94.1799 220.256 93.4323 219.975 92.7446 219.761C90.4603 220.95 87.4676 222.804 85.3633 223.794L85.296 223.53C86.2432 222.9 87.3448 222.377 88.0959 221.7C87.3572 221.449 84.9573 222.233 84.0579 222.289C86.0756 220.997 88.2858 219.849 90.401 218.709C85.5223 215.659 82.26 210.956 80.6548 205.478Z" fill="#010205"/>
<path d="M67.5995 165.178C67.8506 164.521 67.742 164.444 68.2054 164.2C70.2967 165.24 73.7302 166.991 75.8426 167.722C76.4321 170.276 75.2389 170.991 74.9514 173.23C74.5269 176.538 74.7474 180.033 74.205 183.363C74.1574 183.656 74.34 184.295 74.4159 184.581C75.0065 185.79 72.7189 188.2 73.1966 189.105C72.5524 190.416 71.0542 191.34 69.8126 192.081L70.0018 192.329L69.4929 192.636C69.9669 193.002 69.8439 192.775 69.9605 193.283C70.5885 193.155 71.4097 192.784 71.8376 192.87C71.03 193.742 68.6154 194.299 67.4569 194.114C64.8317 193.692 63.0266 192.064 61.4587 190.035C56.909 182.744 65.5834 170.04 64.496 168.206L63.6799 168.032L64.2819 167.595C64.5549 167.7 64.6764 167.789 64.9294 167.937C65.7506 169.815 62.7579 172.254 64.157 174.602L64.335 174.587C64.9234 172.636 66.5857 166.856 67.2613 165.19L67.5995 165.178Z" fill="#AEABAD"/>
<path d="M64.2819 167.595C64.5549 167.699 64.6764 167.789 64.9294 167.937C65.7506 169.815 62.7579 172.254 64.157 174.601L64.335 174.587C64.9234 172.636 66.5857 166.856 67.2613 165.19L67.5995 165.178C66.807 168.363 65.6089 171.414 64.6421 174.54C63.1376 179.404 60.9553 183.76 62.8751 188.839C62.3477 189.685 62.004 189.345 61.4587 190.035C56.909 182.744 65.5834 170.04 64.496 168.205L63.6799 168.032L64.2819 167.595Z" fill="#080A11"/>
<path d="M62.8751 188.839C64.3717 191.34 66.8394 193.221 69.8126 192.081L70.0018 192.328L69.4929 192.636C69.9669 193.001 69.8439 192.774 69.9606 193.283C70.5885 193.155 71.4097 192.784 71.8376 192.87C71.0301 193.742 68.6154 194.299 67.4569 194.113C64.8317 193.691 63.0266 192.064 61.4587 190.035C62.004 189.345 62.3477 189.684 62.8751 188.839Z" fill="#010205"/>
<path d="M86.6546 198.247C88.8544 197.321 106.982 205.796 111.434 206.284C115.327 207.742 118.823 208.222 122.67 209.374C126.747 210.592 130.89 213.724 135.255 214.359C138.229 214.877 137.721 214.552 139.381 216.827C139.66 217.209 142.659 219.043 143.107 219.782C151.99 228.757 160.895 237.714 169.88 246.594C173.942 250.603 177.717 255.077 181.766 259.035L181.569 259.408C178.355 256.425 174.271 251.739 171.052 248.454L152.459 229.854C149.818 227.166 142.252 218.711 139.415 217.326C130.254 212.852 117.379 208.744 107.739 205.622C100.33 203.222 93.7382 200.1 86.6546 198.247Z" fill="#51ADB4"/>
<path d="M75.8426 167.722C77.0145 168.272 78.2662 168.833 79.3987 169.447C77.6949 175.833 76.6044 183.1 73.1966 189.105C72.7189 188.199 75.0066 185.789 74.4159 184.58C74.34 184.295 74.1574 183.655 74.205 183.362C74.7474 180.033 74.5269 176.537 74.9514 173.229C75.2389 170.99 76.4321 170.275 75.8426 167.722Z" fill="#7D7D90"/>
<path d="M81.7437 198.414C83.8002 198.986 85.8381 199.622 87.8547 200.323L87.6979 200.546C84.7562 200.353 84.2037 205.089 82.7157 205.507L82.6313 205.389C82.3206 203.947 82.1155 202.59 81.8922 201.137C81.9578 200.662 81.7883 198.973 81.7437 198.414Z" fill="#B6B3B3"/>
<path d="M59.3698 164.475L60.2539 164.911C61.1173 165.586 62.2461 165.842 63.3011 166.14C64.0052 166.295 64.4919 166.384 65.2069 166.471C64.6723 166.481 61.8084 166.235 61.8024 166.237C62.7054 166.539 63.7815 166.437 64.2253 166.859C63.9759 167.344 64.1372 167.118 63.5666 167.459C63.9169 167.617 63.8782 167.614 64.2819 167.595L63.6799 168.032C61.32 167.873 60.1736 167.219 58.2827 165.884C58.2007 165.405 58.1709 165.418 58.3074 164.961C58.6717 164.784 59.0002 164.636 59.3698 164.475Z" fill="#09161E"/>
<path d="M79.6595 198.214C80.7729 199.577 79.3865 201.489 81.2263 203.477L81.8167 203.243C81.8467 202.249 81.5792 202.224 81.8921 201.137C82.1154 202.59 82.3205 203.948 82.6312 205.389L82.3537 205.331C81.9221 205.238 81.6658 205.116 81.2668 204.938C80.7418 205.088 80.9576 204.936 80.6548 205.478C80.0908 202.691 79.8107 201.113 79.6595 198.214Z" fill="#09161E"/>
<path d="M66.7933 154.279C69.5439 149.267 75.4753 146.137 81.084 147.574C86.5717 148.98 91.4649 151.401 96.6313 153.664C98.3286 154.413 100.297 154.798 101.986 155.537C106.558 157.539 111.194 159.487 115.66 161.718C117.611 162.692 120.939 163.456 121.882 165.43L122.509 167.633C123.388 174.986 120.877 178.5 113.499 180.025C106.904 181.389 98.6096 175.252 92.4887 173.105C90.6896 172.474 88.8157 171.807 87.1187 171.121C82.7387 169.302 78.3934 167.401 74.0852 165.417C72.5535 164.719 70.0611 163.768 68.757 162.888C65.9869 161.02 64.9296 157.026 66.7933 154.279Z" fill="#6ED8D9"/>
<path d="M122.509 167.634C123.388 174.987 120.877 178.5 113.499 180.025C106.904 181.389 98.6096 175.252 92.4887 173.106C90.6896 172.475 88.8157 171.808 87.1187 171.121C82.7387 169.303 78.3934 167.401 74.0852 165.418C72.5535 164.719 70.0611 163.768 68.757 162.889C65.9869 161.02 64.9296 157.027 66.7933 154.279C66.6345 155.405 66.5972 155.705 66.1959 156.765C69.8968 159.728 76.3961 160.855 80.8873 161.957C82.5092 162.355 85.4634 163.45 86.9824 163.563C86.2616 163.051 84.1215 162.289 83.1034 161.771L83.1317 161.551C91.1895 164.577 98.7178 168.455 106.711 171.572C108.066 172.1 110.098 172.444 111.533 172.129C113.913 171.778 117.815 169.031 119.83 167.702C120.625 166.893 121.184 166.318 121.882 165.431L122.509 167.634Z" fill="#51B3BB"/>
<path d="M83.1317 161.551C91.1895 164.577 98.7178 168.455 106.711 171.572C108.066 172.1 110.098 172.444 111.533 172.129C113.913 171.778 117.815 169.031 119.831 167.702C118.897 169.053 115.626 172.058 114.122 172.414L114.111 172.328C113.544 172.089 110.875 173.723 109.871 173.628C105.439 173.212 100.88 169.776 96.5573 168.257C96.4828 168.231 95.0704 166.854 94.525 166.524C92.9359 165.565 88.1526 164.446 86.9824 163.563C86.2616 163.051 84.1215 162.289 83.1034 161.771L83.1317 161.551Z" fill="#6ED8D9"/>
<path d="M121.882 165.431L122.509 167.634C119.757 169.984 115.517 171.752 113.001 174.553C112.736 174.849 112.544 174.876 112.17 174.977L111.858 174.867C112.654 173.757 113.42 173.35 114.122 172.414C115.626 172.058 118.897 169.053 119.831 167.702C120.625 166.893 121.184 166.318 121.882 165.431Z" fill="#51ADB4"/>
<path d="M67.4925 153.673C72.7926 154.314 78.5747 157.913 83.5742 160.195C90.1849 163.213 97.3511 165.883 103.939 169.03C105.044 169.558 111.201 171.561 111.477 171.863L111.533 172.129C110.098 172.444 108.066 172.1 106.711 171.572C98.7178 168.455 91.1895 164.577 83.1317 161.551C82.2444 160.955 80.9439 160.527 79.9684 160.052C76.2613 158.249 70.8058 156.612 67.7884 153.937L67.602 153.774C67.5654 153.74 67.5291 153.706 67.4925 153.673Z" fill="#99F1F0"/>
<path d="M149.494 118.141C146.457 112.446 146.176 105.421 152.823 102.091C160.313 98.3398 163.111 98.079 171.145 101.076C177.444 103.425 183.728 106.41 189.878 109.219C197.972 112.791 211.434 115.609 208.253 127.694C207.45 130.748 203.762 132.943 201.208 134.37C193.376 138.238 185.55 133.237 178.534 130.095C174.121 128.119 169.748 126.592 165.445 124.498C164.435 128.356 163.007 132.555 161.783 136.387C169.999 137.921 177.89 141.987 185.751 144.462C195.411 147.502 204.585 151.044 213.527 155.83C220.026 159.309 225.043 164.769 230.025 169.963C234.268 174.386 238.794 178.666 243.068 183.069C247.118 187.326 251.199 192.165 255.188 196.513C260.769 202.597 266.655 208.468 272.057 214.702C278.88 221.893 281.829 227.625 280.136 237.851C279.159 243.754 274.568 249.669 269.053 252.144L268.448 251.839L268.058 252.105C267.529 252.124 267.649 252.077 267.103 251.711C267.424 251.428 268.033 251.122 268.425 250.901L268.196 250.762C275.293 246.506 279.501 239.563 278.484 231.131C278.318 229.672 277.988 228.236 277.502 226.85C276.512 224.072 274.641 220.955 272.762 218.651C267.544 212.254 261.444 206.383 255.9 200.314C247.209 190.804 238.654 181.286 229.515 172.201C226.961 169.662 225.066 167.419 222.298 164.986C218.231 161.406 213.118 157.472 208.093 155.289C201.268 152.323 193.967 149.472 186.965 146.897C184.084 145.837 180.888 145.009 177.852 143.955C168.573 140.73 158.992 136.295 149.136 135.384C146.489 135.139 140.993 136.968 138.534 138.133C134.741 139.693 131.337 142.17 127.755 144.01C124.232 145.821 121.008 147.533 117.57 149.53C114.446 151.345 110.759 153.758 107.463 154.957L107.28 154.822L106.733 154.974L106.567 154.836C106.713 152.663 121.077 145.988 122.986 144.307C123.295 144.035 123.182 143.754 123.155 143.298L123.669 143.15C124.769 142.183 130.732 138.072 131.815 137.919L132.144 138.522C134.45 137.221 137.756 136.46 140.215 135.328C141.686 134.65 143.354 134.374 144.829 133.6C146.164 129.942 147.652 126.38 148.463 122.572C148.775 121.102 149.139 119.6 149.494 118.141Z" fill="#1B3342"/>
<path d="M123.669 143.15C124.769 142.183 130.732 138.072 131.815 137.919L132.144 138.523C131.772 139.347 125.818 142.656 124.595 143.142C124.29 143.263 123.983 143.207 123.669 143.15Z" fill="#EAE6E2"/>
<path d="M149.422 108.723C150.805 105.34 153.597 103.719 156.832 102.277C165.731 98.3127 175.714 105.767 183.979 108.866C188.542 110.577 202.346 116.149 204.967 119.502L205.372 120.153C206.479 123.704 205.213 128.495 202.436 130.982C200.046 133.131 196.526 133.687 193.417 133.476C191.865 133.224 189.566 132.758 188.166 132.086C184.137 130.152 179.989 128.637 175.897 126.946C171.488 125.123 167.017 122.84 162.633 120.926C159.718 119.654 156.714 118.677 153.859 117.27C152.935 116.783 151.445 116.199 150.772 115.415C149.188 113.571 149.095 111.007 149.422 108.723Z" fill="#6ED8D9"/>
<path d="M205.372 120.153C206.479 123.704 205.213 128.495 202.436 130.982C200.046 133.131 196.526 133.687 193.417 133.476C191.865 133.224 189.566 132.758 188.166 132.086C184.137 130.152 179.989 128.637 175.897 126.946C171.488 125.123 167.017 122.84 162.633 120.926C159.718 119.654 156.714 118.677 153.859 117.27C152.935 116.783 151.445 116.199 150.772 115.415C149.188 113.57 149.095 111.007 149.422 108.723C149.713 109.067 149.848 109.223 150.1 109.607C150.063 109.917 149.838 111.078 150.099 111.258C152.305 112.781 155.256 113.606 157.707 114.756C163.355 117.405 168.891 120.144 174.674 122.493C176.828 123.368 178.938 124.825 181.124 125.681C183.709 126.664 187.734 127.792 190.423 128.206C191.863 127.927 192.124 127.307 193.279 126.819C193.577 126.693 195.066 126.623 195.562 126.476C198.636 125.562 203.383 122.228 204.967 119.502L205.372 120.153Z" fill="#4FA2AD"/>
<path d="M204.968 119.503L205.373 120.154C204.555 123.145 201.902 124.45 199.455 126.223C198.962 126.581 197.599 126.988 197.203 127.296L197.629 127.387L197.601 127.636C195.966 128.676 192.315 128.443 190.423 128.207C191.863 127.927 192.124 127.307 193.279 126.819C193.577 126.693 195.066 126.624 195.563 126.476C198.636 125.563 203.383 122.229 204.968 119.503Z" fill="#51ADB4"/>
<path d="M164.64 112.29C165.646 112.248 173.985 116.26 175.601 116.95L186.795 121.639C187.986 122.127 194.042 124.444 194.67 124.991L194.558 125.243L193.388 125.599C190.219 125.662 184.009 122.256 180.971 121.015C175.904 118.946 170.071 116.677 165.246 114.127L165.437 113.96L165.205 113.437L165.418 113.179L165.986 113.153C165.831 112.795 165.124 112.564 164.64 112.29Z" fill="#99F1F0"/>
<path d="M147.122 133.58C147.937 131.66 150.742 118.769 152.089 118.591C156.158 120.165 159.706 121.761 163.709 123.39C162.67 127.562 161.356 131.792 160.371 135.907C158.328 135.321 156.275 134.766 154.214 134.243C152.332 134.196 149.814 133.614 147.122 133.58Z" fill="#8F8D91"/>
<path d="M147.122 133.58C147.937 131.66 150.742 118.769 152.089 118.591C152.192 122.018 154.4 121.148 154.824 123.936C155.027 125.273 155.654 133.37 155.244 134.133L154.214 134.243C152.332 134.196 149.814 133.614 147.122 133.58Z" fill="#B6B3B3"/>
<path d="M80.8204 169.883C84.0638 171.551 88.0744 173.283 91.447 174.76C99.2301 178.171 108.134 183.305 116.762 180.57C118.694 179.974 120.492 179.005 122.054 177.72C122.681 178.238 124.221 178.426 125.003 178.7C135.805 182.478 141.356 181.947 129.377 191.089C127.525 192.503 125.801 196.046 122.727 198.004C118.837 198.126 116.002 196.288 112.473 194.927C109.357 193.725 106.229 192.135 103.088 191.023C99.0004 189.576 94.722 188.295 90.6576 186.718C89.7163 186.353 88.5642 186.315 87.958 187.135C86.7499 188.473 84.6913 192.855 84.8513 194.541C85.8936 195.338 86.3035 194.471 86.7062 195.105C86.2978 195.332 86.2624 195.36 85.8182 195.489C86.611 196.665 88.0189 197.76 89.5133 197.903C91.2296 198.066 92.1943 198.932 93.7206 199.616C95.6505 200.123 103.325 203.064 104.731 203.181L105.001 202.886C107.117 203.608 109.615 205.009 111.434 206.284C106.982 205.796 88.8544 197.321 86.6546 198.248C83.4306 197.483 81.6094 196.86 78.9409 194.861C77.4139 193.776 76.2726 190.785 75.4963 189.03C76.3806 184.837 77.7979 179.4 79.183 175.272C79.5023 173.575 80.2296 171.534 80.8204 169.883Z" fill="#3F8C9F"/>
<path d="M79.183 175.272C79.2161 176.754 78.784 177.684 78.4474 179.087C77.6801 182.288 75.5991 186.742 76.4351 189.998C76.6663 190.896 77.8326 192.955 78.3081 193.793L78.5721 193.682C78.6235 193.182 78.3715 192.265 78.3315 191.52L78.49 191.468C78.888 192.374 78.8967 193.838 78.9409 194.862C77.4139 193.776 76.2726 190.785 75.4963 189.03C76.3806 184.838 77.7979 179.401 79.183 175.272Z" fill="#596C75"/>
<path d="M278.484 231.131C279.501 239.563 275.293 246.506 268.196 250.762L268.425 250.901C268.033 251.122 267.424 251.428 267.103 251.711C267.649 252.076 267.529 252.123 268.057 252.105L268.447 251.838L269.053 252.144C264.356 254.722 260.668 257.342 255.808 259.743C254.991 259.68 254.803 260.06 254.094 259.822L254.143 259.49C254.514 259.288 254.852 259.181 255.247 259.033L255.257 258.84L254.878 258.798C254.383 259.115 254.289 259.173 253.751 259.4L253.382 259.235C245.826 262.507 238.867 267.451 231.422 271.053C227.812 272.799 224.342 275.57 220.504 277.038C215.704 279.208 206.865 279.772 202.042 277.655C194.415 274.308 187.265 265.119 181.569 259.408L181.766 259.035C185.536 262.62 191.901 270.53 196.042 273.217C203.349 266.548 205.882 268.196 214.665 266.848C222.073 265.71 230.981 260.885 237.904 257.711C240.006 256.747 242.646 254.596 244.757 253.395C249.274 250.822 253.686 248.086 258.182 245.482C260.421 244.177 266.177 240.258 268.327 239.593C268.5 240.108 268.459 239.833 268.299 240.465C270.052 239.885 274.346 238.425 276.135 239.077C276.641 239.261 276.54 239.349 277.164 239.259C278.494 238.095 277.627 232.905 278.484 231.131Z" fill="#41909C"/>
<path d="M268.196 250.763L268.425 250.901C268.033 251.123 267.424 251.428 267.103 251.711C267.649 252.077 267.529 252.124 268.057 252.105L268.447 251.839L269.053 252.145C264.356 254.723 260.668 257.342 255.808 259.744C254.991 259.68 254.803 260.061 254.094 259.823L254.143 259.491C254.514 259.288 254.852 259.181 255.247 259.033L255.257 258.84L254.878 258.799C254.383 259.116 254.289 259.174 253.751 259.401L253.382 259.236C257.032 256.924 264.431 252.407 268.196 250.763Z" fill="#010205"/>
<path d="M32.532 62.279C29.8984 59.1121 21.8569 39.148 21.2809 33.8802C20.9177 30.56 22.2964 25.5877 24.5604 22.9462C25.5032 21.8461 27.132 20.8758 28.2966 19.9737C34.416 15.2342 41.0308 12.4091 47.7311 8.67237C49.8878 7.46525 52.2579 6.09368 54.4493 5.01318C60.5081 2.02548 70.4312 0.216843 75.8942 5.30496C79.1211 8.31061 87.0094 23.0774 87.2788 27.3286C87.946 29.09 88.8836 31.6782 89.046 33.5197C89.4013 35.1699 89.3156 37.7262 89.0162 39.3901C88.8328 41.7205 86.8943 45.1154 85.7466 47.2374L85.8679 47.504C86.7471 47.3836 90.4275 45.929 91.9151 45.6234C98.2116 44.33 104.195 44.5884 109.432 48.6451C113.608 51.8795 118.71 61.5533 120.674 66.2965C121.273 67.333 121.886 69.4792 122.237 70.6876C125.629 77.9317 128.96 85.223 131.713 92.731C132.981 96.1912 134.931 99.6886 136.18 103.107C139.137 109.711 142.396 121.429 139.719 128.34C138.248 132.654 136.06 135.913 131.815 137.919C130.732 138.072 124.769 142.183 123.669 143.15L123.155 143.298C123.182 143.754 123.295 144.035 122.986 144.307C121.077 145.988 106.713 152.664 106.567 154.836L106.733 154.974L107.28 154.823L107.463 154.957L106.318 155.612C105.293 155.6 103.604 154.954 102.91 154.197C101.981 154.274 100.648 153.875 99.9133 153.273C99.0075 153.529 97.0373 152.406 96.181 151.991C86.2549 147.177 74.8789 141.125 66.4339 152.117C64.8287 154.092 63.9534 156.395 64.3187 158.957C64.7361 161.885 66.7343 162.499 65.538 165.719C64.8235 166.253 64.2611 166.129 63.3011 166.14C62.2461 165.842 61.1173 165.586 60.2539 164.911L59.3698 164.475C59.0003 164.636 58.6718 164.784 58.3074 164.961C58.1709 165.418 58.2008 165.405 58.2827 165.884C56.943 164.994 53.3276 161.782 52.6629 160.565C49.1183 154.071 44.0243 145.532 42.1703 138.419C41.3123 136.133 39.9233 133.173 38.9518 130.804C38.5406 130.145 38.1516 129.13 37.7694 128.411C35.115 123.536 33.4729 118.131 31.1331 113.139C29.6996 110.082 28.6181 107.869 27.5869 104.599C27.1163 103.679 26.6871 101.995 26.3796 100.983C23.6908 93.268 23.8095 82.333 31.1241 77.098C33.1556 75.6442 45.0296 67.5179 46.9118 67.0167L47.043 66.2821C43.2118 66.6324 41.5956 66.947 37.8173 66.0472C34.9768 65.1882 34.2373 64.6535 32.532 62.279Z" fill="#54B9C1"/>
<path d="M32.532 62.279C29.8984 59.1121 21.8569 39.148 21.2809 33.8802C20.9177 30.56 22.2964 25.5877 24.5605 22.9462C25.5032 21.8461 27.132 20.8758 28.2966 19.9737C34.416 15.2342 41.0308 12.4091 47.7311 8.67237C49.8878 7.46525 52.258 6.09368 54.4493 5.01318C60.5081 2.02548 70.4312 0.216843 75.8942 5.30496C79.1211 8.31061 87.0094 23.0774 87.2788 27.3286C86.8943 28.7971 87.874 28.3844 86.6213 30.0691L86.55 29.9279L86.3406 30.136C87.5106 35.2484 88.0429 42.1525 84.1166 46.2376C82.5173 47.4159 80.8431 48.2937 79.1018 49.2301C73.1492 52.4311 67.4556 55.7493 61.272 58.4939C57.4825 60.176 53.8517 62.4398 49.7462 63.5459C44.4973 65.0947 40.6513 64.874 37.258 60.3344L37.0931 60.6027C38.0261 62.4625 40.885 63.5114 40.8666 64.7082C40.2315 65.1061 40.5302 65.0322 39.7765 65.0088C38.5868 64.4744 36.9225 62.0497 35.9138 60.9284L35.731 61.0085C36.4466 62.5094 37.3828 63.0442 37.977 64.111L37.6547 64.4144C38.104 64.8504 39.238 65.4387 39.3641 65.8291C38.755 66.127 38.5048 66.0577 37.8173 66.0472C34.9768 65.1882 34.2373 64.6535 32.532 62.279Z" fill="#53B3BC"/>
<path d="M32.532 62.279C29.8984 59.1121 21.8569 39.148 21.2809 33.8802C20.9177 30.56 22.2964 25.5877 24.5605 22.9462C25.5032 21.8461 27.132 20.8758 28.2966 19.9737C34.416 15.2342 41.0308 12.4091 47.7311 8.67237C49.8878 7.46525 52.258 6.09368 54.4493 5.01318C60.5081 2.02548 70.4312 0.216843 75.8942 5.30496C79.1211 8.31061 87.0094 23.0774 87.2788 27.3286C86.8943 28.7971 87.874 28.3844 86.6213 30.0691L86.55 29.9279L86.3406 30.136C86.0854 29.6461 85.1833 26.7042 84.7465 25.7208C82.2356 20.0703 79.7642 13.3968 76.1865 8.3665C74.2785 5.68381 71.3713 4.53477 68.2478 4.17468C58.8246 3.68277 55.4807 7.07616 47.7128 11.3108C43.6266 13.5383 38.9261 15.3975 34.9106 17.9052C33.2295 18.9044 31.2909 20.6647 29.6269 21.7077C27.9954 24.8167 27.5106 24.6886 26.7356 28.5627L26.5793 29.9335C26.5684 38.1714 31.7417 45.1854 33.8805 52.9366C34.6181 55.6094 36.2265 57.8654 37.258 60.3344L37.0931 60.6027C38.0261 62.4625 40.885 63.5114 40.8666 64.7082C40.2315 65.1061 40.5302 65.0322 39.7765 65.0088C38.5868 64.4744 36.9225 62.0497 35.9138 60.9284L35.731 61.0085C36.4466 62.5094 37.3828 63.0442 37.977 64.111L37.6547 64.4144C38.104 64.8504 39.238 65.4387 39.3641 65.8291C38.755 66.127 38.5048 66.0577 37.8173 66.0472C34.9768 65.1882 34.2373 64.6535 32.532 62.279Z" fill="#1B3342"/>
<path d="M25.5184 24.6729C26.7523 22.9873 27.6221 22.3253 29.6269 21.708C27.9955 24.8169 27.5106 24.6889 26.7356 28.563L26.5793 29.9338C26.5684 38.1716 31.7417 45.1856 33.8805 52.9369C34.6181 55.6097 36.2265 57.8657 37.258 60.3347L37.0931 60.603C38.0261 62.4628 40.885 63.5117 40.8666 64.7085C40.2315 65.1064 40.5302 65.0325 39.7765 65.0091C38.5868 64.4747 36.9225 62.0499 35.9138 60.9287L35.731 61.0088C35.7025 60.9821 35.6702 60.9593 35.6453 60.9293C34.7443 59.8498 25.822 38.3846 25.368 36.5938C24.714 34.0138 24.5586 31.3624 25.0425 28.7428C24.9908 27.8316 25.3187 27.5301 25.2386 26.5635L25.0258 26.4103L24.3611 26.7999C24.6632 25.9676 24.9546 25.3603 25.5184 24.6729Z" fill="#596C75"/>
<path d="M25.5184 24.6729C26.7523 22.9873 27.6221 22.3253 29.6269 21.708C27.9955 24.8169 27.5106 24.6889 26.7356 28.563L26.5793 29.9338L26.3743 29.6974C26.2485 28.2336 27.0203 25.6474 27.6409 24.3893L27.7236 24.2256L27.6473 24.1148C27.2093 24.2164 26.8219 24.2829 26.3813 24.3576C26.3773 25.8501 25.7288 27.4208 25.0425 28.7428C24.9908 27.8316 25.3187 27.5301 25.2386 26.5635L25.0258 26.4103L24.3611 26.7999C24.6632 25.9676 24.9546 25.3603 25.5184 24.6729Z" fill="#8B9CA1"/>
<path d="M24.3611 26.7998L25.0258 26.4102L25.2386 26.5633C25.3187 27.5299 24.9908 27.8314 25.0425 28.7427C24.5586 31.3622 24.714 34.0137 25.368 36.5937C25.822 38.3845 34.7443 59.8497 35.6453 60.9291C35.6702 60.9591 35.7025 60.982 35.731 61.0086C36.4466 62.5095 37.3828 63.0443 37.977 64.1112L37.6547 64.4145C37.0395 64.125 35.9417 63.4272 35.3138 63.0499C34.7846 62.2017 33.7958 61.6414 32.8525 59.8943C31.0635 56.5808 29.7818 53.5176 28.345 50.0457C25.1179 42.2466 21.9165 35.3796 24.3611 26.7998Z" fill="#C9C5C2"/>
<path d="M32.532 62.2793C33.1627 62.5701 33.2645 62.6888 33.6334 63.2757C34.3258 63.4478 34.7863 62.8735 35.7392 64.2135L36.0326 64.1614C35.6899 63.8543 35.4947 63.6917 35.2001 63.3261L35.3137 63.0501C35.9417 63.4274 37.0395 64.1252 37.6547 64.4147C38.1039 64.8507 39.2379 65.439 39.3641 65.8294C38.7549 66.1274 38.5048 66.058 37.8172 66.0475C34.9768 65.1885 34.2373 64.6538 32.532 62.2793Z" fill="#09161E"/>
<path d="M29.6268 21.7075C31.2909 20.6645 33.2295 18.9042 34.9106 17.905C38.9261 15.3973 43.6265 13.5381 47.7127 11.3106C55.4807 7.07595 58.8245 3.68256 68.2477 4.17446L68.2672 4.45746C67.8828 4.50803 65.5535 4.57485 65.6246 4.52044C63.159 6.40639 60.6945 7.80203 57.9292 9.17404C55.3303 10.4634 53.1024 12.1658 50.4793 13.4139C46.1823 15.81 40.8798 18.1828 37.6743 22.028C36.0452 23.9823 35.6945 28.0679 34.4163 30.389C33.713 31.666 32.4242 30.9443 31.9697 32.7081C31.8255 32.1201 31.5393 31.0355 31.6008 30.472C31.9736 27.0582 30.3444 26.7725 28.6937 24.2879C27.3673 25.0904 27.3178 28.8921 26.8933 29.3352L26.7356 28.5625C27.5105 24.6884 27.9954 24.8165 29.6268 21.7075Z" fill="#99F1F0"/>
<path d="M87.2788 27.3291C87.9459 29.0905 88.8836 31.6787 89.046 33.5202C89.4013 35.1704 89.3156 37.7267 89.0162 39.3906C88.8328 41.721 86.8942 45.1159 85.7466 47.2378L85.8679 47.5045C86.7471 47.3841 90.4275 45.9295 91.9151 45.6238C98.2116 44.3305 104.195 44.5889 109.432 48.6456C113.608 51.88 118.71 61.5538 120.674 66.297C121.273 67.3335 121.886 69.4797 122.237 70.6881C121.829 70.9671 121.837 71.0683 121.635 71.5195C122.012 71.9517 121.961 72.1097 121.868 72.6068L121.575 72.763C121.295 72.0473 121.097 71.6453 120.744 70.9641L120.615 71.203C116.774 64.7957 113.097 51.7086 105.53 48.5127C101.266 46.9752 98.4444 46.9663 94.0704 47.6695C92.4654 47.5624 87.9711 48.6827 86.6115 49.4027C80.7084 52.5289 75.1207 55.8902 69.0514 58.762C65.0681 60.6467 61.0459 63.2149 57.1419 65.2624C54.075 66.9208 47.1161 69.5507 44.4457 71.6044C37.4274 75.4253 28.7704 79.6864 27.6247 88.54C27.2488 92.1711 27.5173 94.3851 28.0761 97.942C28.5855 102.428 29.1855 104.264 30.8844 108.422C29.6769 107.244 29.2177 104.618 27.8893 104.18L27.5869 104.599C27.1162 103.679 26.6871 101.996 26.3796 100.984C23.6908 93.2685 23.8095 82.3335 31.1241 77.0985C33.1556 75.6447 45.0296 67.5184 46.9117 67.0172L47.043 66.2826C43.2118 66.6328 41.5956 66.9475 37.8172 66.0477C38.5048 66.0582 38.7549 66.1275 39.3641 65.8296C39.2379 65.4392 38.1039 64.8508 37.6547 64.4149L37.977 64.1115C37.3828 63.0447 36.4466 62.5099 35.7309 61.009L35.9137 60.9289C36.9225 62.0502 38.5867 64.4749 39.7764 65.0093C40.5302 65.0327 40.2315 65.1066 40.8666 64.7087C40.8849 63.5119 38.0261 62.463 37.0931 60.6032L37.2579 60.3349C40.6513 64.8745 44.4973 65.0952 49.7462 63.5464C53.8517 62.4403 57.4824 60.1765 61.272 58.4944C67.4556 55.7498 73.1492 52.4316 79.1017 49.2306C80.8431 48.2942 82.5172 47.4163 84.1166 46.2381C88.0429 42.153 87.5106 35.2489 86.3406 30.1365L86.55 29.9284L86.6212 30.0696C87.8739 28.3849 86.8942 28.7976 87.2788 27.3291Z" fill="#253745"/>
<path d="M87.2788 27.3291C87.9459 29.0905 88.8836 31.6787 89.046 33.5202C89.4013 35.1704 89.3156 37.7267 89.0162 39.3906C88.8328 41.721 86.8943 45.1159 85.7466 47.2379C85.4865 47.1953 85.398 47.1432 85.1496 47.0505C86.6923 45.0857 89.0404 41.0157 87.6008 38.535L87.3955 38.5099C87.2749 39.4911 87.0739 41.1615 87.0739 42.0338C87.0739 42.9666 85.278 45.6797 84.4603 46.2942L84.1166 46.2381C88.0429 42.153 87.5106 35.2489 86.3406 30.1365L86.55 29.9284L86.6213 30.0696C87.874 28.3849 86.8943 28.7976 87.2788 27.3291Z" fill="#09161E"/>
<path d="M89.0162 39.39C87.9313 38.4467 88.0297 34.6018 89.046 33.5195C89.4013 35.1697 89.3156 37.7261 89.0162 39.39Z" fill="#010205"/>
<path d="M121.635 71.5193C121.146 71.0888 120.784 69.9003 120.921 69.2978C121.213 68.0146 120.403 67.372 120.674 66.2969C121.273 67.3334 121.886 69.4795 122.237 70.6879C121.829 70.9669 121.837 71.0682 121.635 71.5193Z" fill="#09161E"/>
<path d="M47.043 66.2826C47.8899 65.8007 49.2403 65.7801 50.1988 65.4261C51.0707 65.1044 51.8619 65.2549 52.7946 65.1807C50.8132 65.8765 48.8297 66.3244 46.9117 67.0172L47.043 66.2826Z" fill="#596C75"/>
<path d="M44.4457 71.6042C47.1161 69.5505 54.075 66.9206 57.1419 65.2622C61.0459 63.2147 65.0681 60.6465 69.0514 58.7618C75.1207 55.89 80.7084 52.5287 86.6115 49.4025C87.9711 48.6825 92.4654 47.5622 94.0704 47.6693C94.9434 48.5642 95.922 48.2229 96.6789 48.9058C96.8231 51.312 88.797 54.9857 86.652 56.1482C81.9444 57.9285 78.063 60.8123 73.7499 63.2991C68.8609 66.1181 63.1571 69.2768 57.8111 71.0363C55.0374 71.949 51.2179 71.3233 48.3424 71.7938C46.9909 71.7679 45.5644 72.2274 44.4457 71.6042Z" fill="#3F8C9F"/>
<path d="M44.4458 71.6035C45.5644 72.2268 46.9909 71.7672 48.3424 71.7931C49.7213 71.8634 51.1014 71.9 52.482 71.903L52.5188 72.0074C51.9409 72.0546 51.5201 71.9757 51.1746 72.3061C52.0146 74.2911 43.776 78.3117 42.8522 81.1497C41.4566 85.4373 42.5151 96.8318 39.8582 99.9286C39.615 99.3327 38.0929 95.212 38.0008 95.1773C36.3499 94.5586 31.2212 92.9133 29.6884 90.9923C29.3413 90.5575 27.9518 88.9161 27.7766 88.8456L27.6248 88.5391C28.7704 79.6855 37.4274 75.4244 44.4458 71.6035Z" fill="#6ED8D9"/>
<path d="M39.7856 80.3457C39.9261 80.3911 40.1781 80.5338 40.3202 80.6073C40.9157 81.9906 39.246 89.9046 38.9106 91.8453C38.8018 92.4749 38.5063 92.6703 38.0355 92.9238C36.0487 88.1343 36.6954 84.3246 39.7856 80.3457Z" fill="#99F1F0"/>
<path d="M99.9133 153.273C103.108 151.897 107.321 149.263 110.533 147.634C112.726 146.066 116.111 145.264 118.249 143.814C126.413 138.279 136.577 135.128 138.761 124.622C138.895 125.818 138.294 127.715 138.426 128.138L138.869 127.991C139.16 128.465 139.125 128.226 139.077 128.705L139.292 128.618L139.16 128.569C139.362 128.507 139.531 128.44 139.719 128.339C138.248 132.654 136.06 135.913 131.815 137.919C130.732 138.072 124.769 142.183 123.669 143.15L123.155 143.298C123.182 143.754 123.295 144.035 122.986 144.307C121.077 145.988 106.713 152.663 106.567 154.836L106.733 154.974L107.28 154.823L107.463 154.957L106.318 155.612C105.293 155.6 103.604 154.954 102.91 154.196C101.981 154.274 100.648 153.875 99.9133 153.273Z" fill="#1B3342"/>
<path d="M123.155 143.298C123.182 143.754 123.295 144.035 122.986 144.307C121.077 145.988 106.713 152.664 106.567 154.837L106.733 154.975L107.28 154.823L107.463 154.957L106.318 155.612C105.293 155.6 103.604 154.954 102.91 154.197C107.213 152.539 111.916 149.329 115.925 147.063C118.235 145.758 120.781 144.581 123.155 143.298Z" fill="#498C94"/>
<path d="M120.615 71.2024L120.744 70.9635C121.097 71.6447 121.295 72.0467 121.575 72.7624L121.868 72.6062C121.961 72.1091 122.012 71.9511 121.635 71.5189C121.837 71.0677 121.829 70.9665 122.237 70.6875C125.629 77.9316 128.96 85.2229 131.713 92.7309C132.981 96.1911 134.931 99.6885 136.18 103.107L135.465 103.282C134.722 103.07 134.232 102.492 133.645 101.948C131.469 97.2877 129.902 92.4851 127.83 87.7954C125.978 83.6048 123.858 79.497 122.141 75.2451C121.687 74.1203 120.883 72.3309 120.615 71.2024Z" fill="#010205"/>
<path d="M42.9757 137.71C47.4429 146.171 51.368 159.171 59.3698 164.475C59.0002 164.637 58.6717 164.784 58.3074 164.962C58.1709 165.419 58.2007 165.405 58.2827 165.884C56.943 164.994 53.3276 161.783 52.6629 160.565C49.1182 154.072 44.0242 145.533 42.1702 138.419L42.9757 137.71Z" fill="#03060F"/>
<path d="M27.5869 104.599L27.8893 104.18C29.2177 104.618 29.6769 107.244 30.8844 108.422L32.6944 111.986C34.2298 116.602 35.3531 118.509 37.2328 122.764C38.114 125.535 39.3613 128.316 40.4889 131.012C40.4979 131.554 40.4662 131.732 40.3792 132.272L40.2245 132.328C39.6442 131.219 39.905 131.316 38.9518 130.804C38.5406 130.146 38.1515 129.13 37.7694 128.412C35.115 123.536 33.4729 118.131 31.133 113.14C29.6996 110.082 28.6181 107.869 27.5869 104.599Z" fill="#010205"/>
<path d="M133.645 101.948C134.232 102.492 134.722 103.07 135.465 103.282L136.18 103.107C139.137 109.711 142.396 121.429 139.719 128.339C139.531 128.44 139.362 128.506 139.16 128.569L139.292 128.618L139.077 128.705C139.125 128.226 139.16 128.465 138.869 127.991L138.426 128.137C138.294 127.714 138.895 125.818 138.761 124.622C139.469 115.451 136.808 110.332 133.645 101.948Z" fill="#010F16"/>
<path d="M44.4546 137.067C45.5983 139.51 46.7702 141.872 47.9649 144.284C50.0775 148.55 51.8865 152.988 54.0904 157.218C54.3506 157.724 54.6021 158.337 54.969 158.771C56.2663 160.101 56.4767 159.461 56.5879 161.436C57.7048 163.069 59.7373 163.733 60.2539 164.911L59.3698 164.475C51.3681 159.171 47.4429 146.171 42.9757 137.71L42.9276 137.351C43.4409 137.552 43.7124 137.867 44.1197 138.242L44.3169 138.15L44.4546 137.067Z" fill="#577F8B"/>
<path d="M94.0704 47.6695C98.4444 46.9664 101.266 46.9752 105.53 48.5127C104.744 48.7971 104.744 48.5734 103.759 48.2954C103.507 48.6375 102.545 49.9369 102.281 50.0687C100.451 50.9826 95.7525 53.5919 94.0205 54.1615C92.2007 54.003 92.6657 53.2019 90.8413 54.2065C90.0206 54.6584 87.4472 56.2424 86.652 56.1484C88.797 54.9859 96.8231 51.3122 96.6789 48.906C95.922 48.2232 94.9434 48.5644 94.0704 47.6695Z" fill="#6ED8D9"/>
<path d="M37.2328 122.764C41.1725 128.005 42.1487 130.716 44.3938 136.847L44.4545 137.067L44.3169 138.15L44.1197 138.242C43.7124 137.867 43.4409 137.552 42.9275 137.351L42.9757 137.71L42.1702 138.419C41.3122 136.133 39.9232 133.174 38.9518 130.804C39.905 131.316 39.6442 131.219 40.2245 132.328L40.3792 132.272C40.4662 131.732 40.4979 131.553 40.4889 131.012C39.3613 128.316 38.114 125.535 37.2328 122.764Z" fill="#3F8C9F"/>
<path d="M38.9518 130.804C39.905 131.316 39.6442 131.219 40.2245 132.328L40.3792 132.271C40.4662 131.732 40.4979 131.553 40.4889 131.012L41.4234 133.258C41.8792 134.617 42.3225 136.059 42.9275 137.351L42.9757 137.71L42.1702 138.419C41.3122 136.133 39.9232 133.174 38.9518 130.804Z" fill="#09161E"/>
<path d="M41.4235 133.259C42.955 134.642 43.1269 135.62 44.3938 136.847L44.4546 137.068L44.317 138.151L44.1197 138.242C43.7125 137.868 43.441 137.553 42.9276 137.351C42.3225 136.059 41.8793 134.617 41.4235 133.259Z" fill="#596C75"/>
<path d="M28.076 97.9414C28.6811 99.5773 29.6867 101.508 30.4374 103.149C32.0441 106.661 32.0623 108.483 32.6944 111.985L30.8844 108.422C29.1855 104.263 28.5855 102.428 28.076 97.9414Z" fill="#3F8C9F"/>
<path d="M123.921 72.3516L124.599 72.3666C124.918 72.8976 124.794 73.4177 124.797 74.1296C124.56 73.8461 124.042 72.7324 123.921 72.3516Z" fill="#010205" fill-opacity="0.0117647"/>
</svg>
