<svg width="176" height="250" viewBox="0 0 176 250" fill="none" xmlns="http://www.w3.org/2000/svg">
<path d="M12.0375 0.848645C15.1587 0.502159 15.1508 1.1924 17.6499 2.14825C18.0529 2.33754 18.5436 2.58389 18.9456 2.75416C20.9197 3.598 24.0242 5.41515 26.0116 6.50165C29.8206 8.58194 33.6427 10.6381 37.4777 12.6701L86.5789 39.3588L112.232 53.3737L120.519 57.8921C121.019 58.1679 123.105 59.2341 123.372 59.4432C124.756 60.2424 128.021 62.121 129.377 62.7168C133.775 65.3412 138.926 67.8346 143.442 70.35C144.659 71.0284 148.377 73.1485 149.483 73.5624C149.904 73.9155 154.516 76.466 155.106 76.6393C159.933 79.4854 164.993 81.9678 169.744 84.9461C171.584 86.0999 173.805 86.7349 174.865 88.7435C175.273 90.3342 175.033 96.3122 175.022 98.3378L174.923 118.312C174.77 148.149 174.787 177.988 174.977 207.825L174.959 229.884C174.971 233.887 175.033 237.904 174.921 241.904C174.894 242.882 174.549 243.733 173.859 244.429C172.225 245.601 166.066 249.076 164.428 249.203C162.986 249.315 155.316 244.718 153.572 243.746L137.126 234.695L44.179 184.183L13.5471 167.598L6.70978 163.857C5.21974 163.041 2.92483 161.909 1.72837 160.829C1.60239 159.933 1.59082 158.954 1.55735 158.043C1.69432 153.846 1.57748 149.093 1.57055 144.857L1.5551 120.928L1.50977 46.7841L1.53685 20.6816L1.53776 12.2441C1.54505 10.4769 1.47643 8.63081 1.76459 6.88784C1.95979 5.70713 3.6214 5.2344 4.54835 4.58295C5.22266 4.27983 5.8156 4.02568 6.45338 3.64267C6.81265 3.51489 8.24881 2.66412 8.67244 2.41919C9.75639 1.81831 10.8808 1.29353 12.0375 0.848645Z" fill="#463636"/>
<path d="M13.7776 2.36523C15.0182 2.73934 17.5504 4.33866 18.8715 5.03518L31.7052 11.9101C32.4266 12.3009 36.1292 14.2131 36.6284 14.6014C37.9728 15.2549 45.1943 18.89 46.1515 19.7269C48.1209 20.6845 50.3025 21.9311 52.2424 22.9835L62.5399 28.5798L66.9784 31.0073C67.4222 31.2446 69.1688 32.1379 69.486 32.3814C72.0382 33.6291 75.103 35.4139 77.6567 36.8152L91.98 44.6568L134.143 67.7L160.965 82.2185C163.706 83.7246 166.422 85.2739 169.114 86.8658C170.029 87.3994 172.033 88.476 172.812 89.0342C173.331 90.2057 173.085 111.128 173.127 114.202C173.194 126.166 173.179 138.13 173.082 150.093C172.99 168.232 172.99 186.373 173.082 204.513L173.176 231.251L173.177 237.762C173.179 239.061 173.24 241.183 173.012 242.4C171.992 243.115 164.675 247.334 163.941 247.163C163.842 247.14 163.774 247.098 163.699 247.032L52.8002 186.557L13.2405 165.143C10.1108 163.474 6.77687 161.428 3.73296 159.873C3.70663 157.361 3.80577 154.63 3.80718 152.07L3.87866 122.422L3.87589 42.7013L3.89832 15.3827C3.90125 13.0532 3.86879 9.98876 3.92101 7.62347C3.92753 7.32847 4.30258 7.1819 4.53924 7.05206C6.67491 5.96207 11.8845 3.02471 13.7776 2.36523Z" fill="#ECE2DD"/>
<path d="M172.812 89.0342C173.331 90.2057 173.086 111.128 173.127 114.202C173.194 126.166 173.18 138.13 173.082 150.093C172.99 168.232 172.99 186.373 173.082 204.513L173.176 231.251L173.177 237.762C173.18 239.061 173.241 241.183 173.012 242.4C171.992 243.115 164.675 247.334 163.941 247.163C163.843 247.14 163.774 247.098 163.7 247.032L163.86 246.926C163.96 246.647 163.832 229.101 163.836 227.688L163.822 136.948L163.932 109.044L163.976 99.9492C163.982 99.0967 163.918 94.3868 164.312 94.061C166.663 92.1177 170.309 91.0277 172.675 89.1443L172.812 89.0342Z" fill="#BAAAA9"/>
<path d="M46.1517 19.7266C48.1212 20.6842 50.3027 21.9308 52.2426 22.9832L62.5401 28.5795L66.9787 31.007C67.4225 31.2443 69.169 32.1376 69.4863 32.3811L69.3946 32.4689C68.7705 32.4501 65.68 30.4083 64.7711 30.2274C64.5652 30.4708 63.884 31.2998 63.5986 31.4592C62.4886 32.0791 60.8221 32.399 59.9971 33.395C59.8558 33.5657 58.3901 33.507 58.1078 33.72C57.8854 33.8878 57.9285 33.7328 57.746 33.6525C56.7559 34.5822 55.6627 33.8582 54.4716 34.2407C54.3157 34.2908 54.1622 34.2808 53.9925 34.2325C54.0125 33.3551 53.3122 33.4773 52.9446 32.2506C52.5768 30.9647 53.0814 29.7896 52.9065 28.4532C52.7288 27.0955 50.2536 24.1318 51.4951 23.0341L51.4729 22.8911C51.0229 22.5243 47.0471 20.4835 46.1201 19.916L46.1517 19.7266Z" fill="#FBF5EF"/>
<path d="M13.7779 2.36523C15.0185 2.73934 17.5507 4.33866 18.8718 5.03518L31.7055 11.9101C32.427 12.3009 36.1296 14.2131 36.6287 14.6014C36.624 14.6861 36.6318 14.6245 36.5565 14.7733C35.3529 14.2331 33.9415 13.3916 32.7585 12.7536C30.3718 11.474 27.9925 10.1804 25.6209 8.8731C24.7112 9.54946 25.8825 10.1419 25.1112 11.1593C24.4412 11.269 24.4255 10.8945 23.6068 10.8975C23.0691 11.2932 23.3943 12.7392 22.2815 13.0608C21.0841 11.9408 21.3574 10.665 19.2522 9.36107C18.0127 8.59332 13.7378 8.54212 13.4403 8.26246C12.5691 7.44346 13.2536 6.96908 13.3635 6.10171C13.4258 5.61041 13.3034 4.97189 13.2539 4.47522C13.5486 4.03057 14.2914 3.62126 14.7602 3.07349L14.6987 2.84128C14.668 2.82671 14.639 2.80839 14.6068 2.79757C13.123 2.29834 7.43574 5.9174 5.81628 6.70488C5.40617 6.90431 4.97805 7.20269 4.53955 7.05206C6.67522 5.96207 11.8848 3.02471 13.7779 2.36523Z" fill="#FBF5EF"/>
<path d="M9.42567 18.9619C10.137 19.1838 10.6907 19.3322 11.35 19.6959C14.7728 20.929 18.4905 23.0291 21.7184 24.7693C26.5013 27.3506 31.2685 29.9612 36.0194 32.6011L75.685 54.1346L127.119 82.2673L147.869 93.2827C150.464 94.6798 153.077 96.074 155.654 97.5035C156.581 98.0183 157.411 98.7474 157.882 99.7079C158.086 100.125 158.134 100.773 158.141 101.237C158.191 104.313 158.157 107.415 158.146 110.493L158.109 126.545L157.976 181.795L158.184 207.053L158.173 220.717C158.172 222.918 158.103 225.792 158.2 227.962C158.184 228.881 158.416 230.254 157.882 230.787C157.365 230.88 156.891 230.565 156.458 230.278C156.416 231.233 156.34 233.776 156.601 234.614C156.653 234.992 156.695 234.892 156.553 235.188C155.666 235.289 150.85 232.335 149.739 231.748L123.935 217.843L35.8681 170.18C30.7632 167.391 25.6253 164.663 20.4557 161.997C17.5896 160.52 14.7142 159.152 11.9252 157.518C11.1938 157.089 9.74889 156.446 9.19526 155.944C9.15812 155.568 9.21174 155.649 9.53564 155.24C9.1948 154.817 9.366 149.487 9.3684 148.521L9.39985 134.664L9.38657 68.9211C9.25694 58.4335 9.22178 47.9449 9.28108 37.4568C9.28429 31.3004 9.20309 25.1089 9.42567 18.9619Z" fill="#463636"/>
<path d="M15.78 152.482C21.3867 155.241 26.3729 158.315 31.7919 161.27L65.3591 179.498L156.331 228.503C156.365 229.062 156.39 229.732 156.458 230.278C156.416 231.232 156.34 233.776 156.601 234.614C156.653 234.992 156.695 234.892 156.553 235.188C155.666 235.289 150.85 232.335 149.739 231.748L123.935 217.843L35.8681 170.18C30.7632 167.391 25.6253 164.663 20.4557 161.997C17.5896 160.52 14.7142 159.152 11.9252 157.518C11.1938 157.089 9.74889 156.446 9.19526 155.944C9.15812 155.568 9.21174 155.649 9.53564 155.24C11.5781 154.41 13.6951 153.36 15.78 152.482Z" fill="#FDF5EE"/>
<path d="M9.42592 18.9619C10.1372 19.1838 10.6909 19.3322 11.3503 19.6959L11.2032 19.8496C11.8109 20.6934 13.5401 21.6348 14.3874 22.866C14.2731 25.5707 14.297 28.2925 14.2586 31.0011C14.1681 38.6379 14.1413 46.2754 14.1778 53.9127L14.1063 102.318L14.1049 134.347L14.1121 144.624C14.1176 146.688 14.0783 149.361 14.2701 151.389C14.7769 151.889 15.1316 152.158 15.7802 152.483C13.6953 153.36 11.5784 154.41 9.53589 155.24C9.19506 154.817 9.36625 149.487 9.36866 148.521L9.40011 134.664L9.38683 68.9211C9.2572 58.4335 9.22204 47.9449 9.28134 37.4568C9.28455 31.3004 9.20335 25.1089 9.42592 18.9619Z" fill="#BAAAA9"/>
<path d="M16.6085 24.1191C19.4275 25.698 22.1679 27.4028 25.0891 28.7753C25.0193 32.0874 25.1467 35.5295 25.1716 38.8569L25.2381 58.1102L25.2779 117.971L25.2815 135.843C25.2828 137.321 25.1674 145.13 25.4929 146.001L26.2268 146.032C28.2014 146.906 29.8999 147.998 31.7567 149.074C39.8516 153.765 48.4336 157.774 56.5119 162.461L57.6521 163.125C57.9313 163.57 59.2442 163.908 59.7824 164.074L59.8325 146.929C59.8359 144.827 59.7099 140.469 59.9175 138.499L59.9542 67.9385C59.8824 65.8068 59.9521 63.4971 59.959 61.342L59.9665 51.1528C59.9733 49.8634 59.6777 48.4026 59.7046 47.1698C63.0123 49.3661 68.19 52.0837 71.8379 53.9973L71.8288 133.788L71.8112 155.496C71.7957 160.282 71.7956 165.071 71.829 169.857C71.8333 170.468 71.7779 170.639 72.2998 170.987C74.2199 171.775 76.7528 173.2 78.6479 174.206C82.663 176.334 86.6557 178.505 90.6255 180.717C96.7432 184.068 103.018 187.254 109.025 190.821C109.443 191.07 109.858 191.342 110.081 191.78C110.666 192.239 111.241 192.459 111.926 192.72C111.931 191.367 111.89 189.895 112.027 188.561C111.965 185.196 112.052 181.59 112.043 178.195L112.013 150.982L112.028 91.9663C111.904 90.2861 111.993 88.4922 111.963 86.799C111.897 83.1398 111.976 79.4077 111.893 75.7553C114.617 77.4082 117.668 78.8784 120.449 80.4707C121.57 81.1121 122.894 81.7218 123.936 82.4479C123.931 89.8164 123.966 97.1849 124.045 104.553L124.088 140.094L124.123 170.465C124.08 179.54 124.108 188.615 124.208 197.689C124.223 198.457 124.092 198.821 124.76 199.274C129.119 201.303 133.981 204.167 138.267 206.459C142.216 208.521 146.129 210.648 150.005 212.842C151.948 213.92 154.406 215.22 156.271 216.409L156.218 218.36C156.356 221.051 156.188 223.886 156.347 226.702L63.0125 176.143L28.6985 157.494C24.8007 155.335 20.4795 153.197 16.6986 150.939C16.5672 149.671 16.6091 147.741 16.6043 146.409C16.593 143.756 16.5971 141.104 16.6169 138.451L16.6291 115.952L16.6245 43.1576C16.4897 37.0122 16.6355 30.3412 16.6085 24.1191Z" fill="#ECE2DD"/>
<path d="M16.6085 24.1191C19.4275 25.698 22.1679 27.4028 25.0891 28.7753C25.0192 32.0874 25.1467 35.5295 25.1716 38.8569L25.2381 58.1102L25.2779 117.971L25.2815 135.843C25.2828 137.321 25.1674 145.13 25.4929 146.001C24.2146 146.48 22.0968 147.349 20.8512 147.714C20.7363 147.357 20.9147 133.902 20.9047 132.586L20.7525 29.9838C19.889 29.4229 17.945 28.2769 16.9092 28.5796C16.5119 29.2446 16.9799 41.1334 16.6245 43.1576C16.4897 37.0122 16.6355 30.3412 16.6085 24.1191Z" fill="#BAAAA9"/>
<path d="M111.893 75.7549C114.617 77.4078 117.668 78.878 120.45 80.4703C121.57 81.1117 122.894 81.7214 123.936 82.4475C123.931 89.816 123.967 97.1846 124.045 104.553L124.089 140.094L124.123 170.465C124.08 179.54 124.108 188.614 124.208 197.689C124.223 198.457 124.092 198.821 124.76 199.274C123.957 199.745 121.083 200.68 120.045 201.052C120.145 197.218 120.06 193.151 120.01 189.299C119.838 176.053 120.269 162.718 119.952 149.482C120.067 147.15 119.96 143.802 119.96 141.389L119.953 125.246C119.998 115.723 119.986 106.198 119.917 96.6746C119.945 92.479 119.945 88.2834 119.919 84.0879C117.328 82.9514 115.011 81.0958 112.079 80.029C111.916 83.8226 112.298 88.2633 112.029 91.9659C111.905 90.2858 111.994 88.4918 111.963 86.7986C111.897 83.1394 111.976 79.4073 111.893 75.7549Z" fill="#BAAAA9"/>
<path d="M59.7049 47.1699C63.0126 49.3662 68.1903 52.0839 71.8382 53.9974L71.8291 133.788L71.8115 155.496C71.796 160.282 71.7959 165.071 71.8293 169.858C71.8336 170.468 71.7782 170.639 72.3001 170.987C71.8155 171.505 68.6442 172.249 67.8148 172.474C67.9788 169.041 67.8764 164.972 67.8776 161.477L67.8738 141.573L67.8498 81.4202C67.8546 76.5734 67.8303 71.7264 67.777 66.8799C67.7476 63.4591 67.6637 59.5157 67.8469 56.1267C67.1368 55.5392 66.7067 55.2736 65.8974 54.8464C65.0044 54.2386 60.9049 51.7092 60.0839 51.3202L60.0808 62.5476C60.0781 63.5964 60.1258 67.009 59.9544 67.9386C59.8827 65.8069 59.9524 63.4972 59.9593 61.3422L59.9668 51.153C59.9736 49.8635 59.678 48.4027 59.7049 47.1699Z" fill="#BAAAA9"/>
<path d="M65.8971 54.8457C66.7063 55.2728 67.1364 55.5384 67.8465 56.126C67.6633 59.515 67.7473 63.4584 67.7767 66.8792C67.8299 71.7257 67.8542 76.5726 67.8494 81.4194L67.8735 141.572L67.8772 161.477C67.876 164.972 67.9784 169.04 67.8144 172.473C68.6439 172.248 71.8152 171.505 72.2997 170.986C74.2198 171.775 76.7527 173.199 78.6478 174.205C82.663 176.334 86.6557 178.504 90.6254 180.716C96.7431 184.067 103.018 187.253 109.025 190.82C109.443 191.069 109.858 191.341 110.081 191.779C109.964 192.856 110.087 195.13 110.127 196.303C97.9696 190 85.9114 183.507 73.9564 176.827C72.6534 176.078 71.3424 175.341 70.0235 174.621C69.0532 174.098 66.597 172.861 65.8873 172.245C65.6863 170.224 65.8314 166.168 65.8059 163.878C65.7516 156.585 65.7389 149.293 65.7682 142L65.7804 79.2147C65.7424 73.0061 65.7441 66.7972 65.7856 60.5885C65.7997 59.3512 65.8108 58.1168 65.8119 56.8794C65.8122 56.3243 65.608 55.2666 65.8971 54.8457Z" fill="#FBF5EF"/>
<path d="M118.633 201.587C118.33 197.567 118.551 192.775 118.518 188.66L118.466 158.96L118.439 95.7623C118.452 94.0416 117.835 84.3076 118.859 83.8906C119.23 83.97 119.386 84.1599 119.674 84.4115L119.828 130.443L119.819 143.282C119.819 144.536 119.749 148.514 119.952 149.482C120.268 162.718 119.838 176.053 120.01 189.299C120.06 193.151 120.145 197.218 120.045 201.052C121.083 200.68 123.957 199.745 124.76 199.274C129.12 201.302 133.981 204.166 138.267 206.459C142.216 208.52 146.129 210.648 150.005 212.842C151.948 213.92 154.406 215.22 156.271 216.409L156.218 218.359C156.112 218.916 156.102 220.056 156.079 220.665C144.473 215.168 133.234 208.286 121.682 202.585C120.503 202.004 119.957 201.715 118.633 201.587Z" fill="#FBF5EF"/>
<path d="M25.4929 146.001L26.2268 146.031C28.2013 146.906 29.8998 147.998 31.7566 149.073C39.8515 153.765 48.4335 157.773 56.5118 162.461L57.652 163.125C57.5732 164.539 57.5576 166.345 57.6591 167.758L57.5772 167.921H57.3752C55.8282 167.028 53.8462 166.2 52.2206 165.308L41.3497 159.329C39.2907 158.184 37.2262 156.958 35.1349 155.881L24.9525 150.623C23.8912 150.071 20.8707 148.939 20.8511 147.714C22.0967 147.349 24.2145 146.479 25.4929 146.001Z" fill="#FBF5EF"/>
<path d="M59.7823 164.073L59.8324 146.928C59.8358 144.826 59.7098 140.468 59.9175 138.498C60.015 140.328 59.9762 142.327 59.956 144.174C59.8668 152.36 60.0881 160.609 59.8149 168.787C58.9836 168.657 57.9278 168.673 57.6591 167.757C57.5576 166.345 57.5732 164.538 57.652 163.125C57.9312 163.569 59.2441 163.907 59.7823 164.073Z" fill="#BAAAA9"/>
<path d="M111.926 192.719C111.931 191.367 111.89 189.895 112.027 188.561C112.125 190.993 112.125 194.933 112.025 197.364C111.467 197.151 110.37 196.819 110.127 196.303C110.088 195.13 109.964 192.856 110.082 191.78C110.666 192.239 111.241 192.458 111.926 192.719Z" fill="#BAAAA9"/>
<path d="M73.8548 55.3516C75.3889 56.3037 77.0702 57.0526 78.6243 58.0049L97.9542 68.5375C99.9254 69.6201 103.86 71.5486 105.57 72.6543C107.005 73.3621 108.426 74.0972 109.832 74.8591C109.852 77.9312 109.851 81.0034 109.831 84.0754C110.002 91.7921 109.739 99.5962 109.873 107.322C109.895 108.581 109.888 109.977 109.833 111.234C110.02 117.307 109.873 124.133 109.909 130.293L109.987 183.834C110.031 185.653 110.002 187.538 109.997 189.362C106.857 187.348 103.292 185.516 100 183.778L91.0687 178.96L80.4278 173.245C78.59 172.265 75.8008 170.684 73.9352 169.933C73.7552 166.649 73.8786 162.156 73.8793 158.764L73.9341 137.818L73.9823 83.6492L73.9787 64.8315C73.9793 62.8052 74.1001 57.1508 73.8548 55.3516Z" fill="#B7E3ED"/>
<path d="M109.733 121.001C109.73 119.694 109.619 111.768 109.833 111.233C110.02 117.307 109.873 124.133 109.909 130.293L109.987 183.834C109.509 183.738 105.29 181.482 104.591 181.12C100.481 178.985 96.387 176.82 92.3094 174.624C89.9247 173.362 87.3249 172.18 85.0476 170.758C82.909 169.424 80.9884 168.304 78.7366 167.17C78.5046 162.605 78.6179 157.308 78.5218 152.682C78.4607 149.74 78.3625 144.552 78.5859 141.687C78.702 142.748 78.6537 145.328 78.6673 146.498C81.8903 144.339 83.8816 142.25 86.7987 139.724C88.4559 138.29 90.3952 136.88 92.0966 135.447L103.416 125.853C104.692 124.776 108.347 121.314 109.733 121.001Z" fill="#A0D4E6"/>
<path d="M73.8548 55.3516C75.3889 56.3037 77.0702 57.0526 78.6243 58.0049L97.9542 68.5375C99.9254 69.6201 103.86 71.5486 105.57 72.6543C104.785 73.5165 103.453 74.5925 102.537 75.3685C99.4234 78.0072 96.1093 80.439 92.9142 82.9791C90.5897 84.8269 88.4596 86.9121 86.033 88.7263C83.6667 90.4954 81.0917 92.392 78.9238 94.4069C78.6954 94.619 78.6343 94.927 78.5869 95.2274L78.613 124.833C78.5687 126.762 78.7173 128.74 78.7035 130.689C78.6772 134.354 78.5602 138.021 78.5859 141.687C78.3626 144.552 78.4607 149.74 78.5219 152.682C78.6179 157.308 78.5046 162.605 78.7367 167.171C80.9884 168.305 82.909 169.424 85.0476 170.758C87.3249 172.18 89.9248 173.362 92.3094 174.624C96.3871 176.82 100.481 178.986 104.591 181.121C105.29 181.482 109.509 183.738 109.987 183.834C110.031 185.653 110.002 187.538 109.997 189.362C106.857 187.348 103.292 185.516 100 183.778L91.0687 178.96L80.4278 173.245C78.59 172.265 75.8008 170.684 73.9352 169.933C73.7552 166.649 73.8786 162.156 73.8793 158.764L73.9341 137.818L73.9823 83.6492L73.9787 64.8315C73.9793 62.8052 74.1001 57.1508 73.8548 55.3516Z" fill="#7CACC6"/>
<path d="M78.6239 58.0049L97.9539 68.5375C99.925 69.6201 103.859 71.5486 105.57 72.6543C104.785 73.5165 103.452 74.5925 102.537 75.3685C99.423 78.0072 96.1089 80.439 92.9138 82.9791C90.5893 84.8269 88.4593 86.9121 86.0326 88.7263C83.6664 90.4954 81.0913 92.392 78.9234 94.4069C78.6951 94.619 78.6339 94.927 78.5865 95.2274C78.5128 88.757 78.6666 81.8564 78.6204 75.3918C78.6029 72.9583 78.2023 58.952 78.6239 58.0049Z" fill="#A0D4E6"/>
<path d="M109.83 84.0752C110.002 91.7919 109.739 99.5959 109.873 107.322C109.895 108.581 109.888 109.977 109.833 111.234C109.619 111.768 109.73 119.694 109.733 121.001C108.347 121.314 104.692 124.776 103.416 125.853L92.0965 135.447C90.395 136.88 88.4557 138.29 86.7985 139.724C83.8815 142.25 81.8902 144.339 78.6671 146.498C78.6536 145.328 78.7018 142.748 78.5857 141.687C78.56 138.021 78.677 134.354 78.7032 130.688C78.717 128.74 78.5685 126.761 78.6128 124.833C78.6561 125.253 78.7124 125.671 78.7812 126.088C79.154 126.174 81.1455 124.104 81.6082 123.699L94.0637 112.699C97.5772 109.633 101.204 106.685 104.701 103.606C105.985 102.475 108.249 100.28 109.696 99.4633L109.741 89.7507C109.749 88.0042 109.7 85.791 109.83 84.0752Z" fill="#AEDEEB"/>
<path d="M27.1205 30.2324L31.742 32.7507C34.0346 33.7454 37.4366 35.6881 39.6834 36.8972L52.0853 43.5083C53.142 44.071 57.1353 46.3331 58.0685 46.5096C57.5481 49.8562 57.6302 53.3295 57.634 56.7157L57.6426 67.8608L57.6149 102.625L57.599 113.939C57.5962 115.787 57.6522 118.156 57.5691 119.964L57.6127 135.581C57.6222 137.913 57.7752 141.989 57.6044 144.123C57.6442 148.019 57.6534 151.916 57.6324 155.813C57.6623 157.189 57.7795 159.877 57.6142 161.145C56.8446 161.296 56.8083 161.767 56.5121 162.461C48.4338 157.774 39.8518 153.765 31.7569 149.074C29.9001 147.998 28.2016 146.906 26.2271 146.032C26.8105 145.435 27.0382 145.269 27.3286 144.493C27.0641 140.865 27.1709 135.171 27.1717 131.476L27.182 109.469L27.1716 53.5282C27.2042 45.7628 27.1871 37.9974 27.1205 30.2324Z" fill="#A0D4E6"/>
<path d="M27.1205 30.2324L31.742 32.7507C31.6175 33.2692 31.7274 34.719 31.7292 35.3734L31.7368 42.0254L31.8027 69.9757L31.8235 113.133L31.8069 125.833C31.7999 127.465 31.6756 131.15 31.8451 132.525C31.7939 135.622 31.7496 138.896 31.8466 141.994C33.3123 142.519 35.1736 143.605 36.592 144.372L45.7799 149.413C46.8848 150.006 48.5407 150.951 49.657 151.442C50.3867 152.023 52.6128 153.117 53.5307 153.617C54.7596 154.286 56.394 155.263 57.6324 155.813C57.6623 157.189 57.7795 159.877 57.6142 161.145C56.8446 161.296 56.8083 161.767 56.5121 162.461C48.4338 157.774 39.8518 153.765 31.7569 149.074C29.9001 147.998 28.2016 146.906 26.2271 146.032C26.8105 145.435 27.0382 145.269 27.3286 144.493C27.0641 140.865 27.1709 135.171 27.1717 131.476L27.182 109.469L27.1716 53.5282C27.2042 45.7628 27.1871 37.9974 27.1205 30.2324Z" fill="#7CACC6"/>
<path d="M27.3286 144.492C28.8508 145.537 31.2088 146.725 32.8678 147.656C37.0158 150.017 41.2056 152.303 45.4352 154.515C47.788 155.74 50.1261 156.992 52.4486 158.273C54.0529 159.166 56.0025 160.348 57.6142 161.145C56.8446 161.295 56.8083 161.766 56.5121 162.461C48.4338 157.773 39.8518 153.765 31.7569 149.073C29.9001 147.998 28.2016 146.906 26.2271 146.031C26.8105 145.435 27.0382 145.269 27.3286 144.492Z" fill="#544D51"/>
<path d="M31.8451 132.525C32.4088 132.133 33.0331 131.52 33.6037 131.099C35.7453 129.513 37.6749 127.713 39.7088 126.031L52.8844 115.342C54.0729 114.359 55.1503 113.267 56.3004 112.246C56.556 112.019 56.9763 111.942 57.3245 111.992C57.9186 113.198 57.0098 119.06 57.569 119.964L57.6126 135.581C57.6221 137.913 57.7752 141.989 57.6043 144.123C57.6441 148.019 57.6533 151.916 57.6323 155.813C56.3939 155.263 54.7595 154.286 53.5306 153.617C52.6127 153.117 50.3866 152.023 49.6569 151.442C48.5406 150.951 46.8848 150.006 45.7798 149.413L36.5919 144.372C35.1736 143.605 33.3123 142.519 31.8465 141.994C31.7495 138.896 31.7938 135.622 31.8451 132.525Z" fill="#B7E3ED"/>
<path d="M57.4367 145.36C57.4713 144.934 57.5378 144.543 57.6041 144.122C57.6439 148.019 57.6531 151.915 57.6321 155.813C56.3937 155.262 54.7593 154.286 53.5304 153.617C52.6125 153.116 50.3864 152.022 49.6567 151.441C51.52 150.787 55.5875 146.827 57.4367 145.36Z" fill="#A0D4E6"/>
<path d="M56.3132 49.6201C56.4638 49.6692 56.5147 49.7166 56.6526 49.8008C57.2456 50.8699 56.3642 51.7794 55.6643 52.5447C55.5578 52.6143 55.5234 52.5946 55.3752 52.6116C55.114 52.0249 55.9318 50.1414 56.3132 49.6201Z" fill="#B7E3ED"/>
<path d="M125.995 83.7939C127.515 84.5205 129.306 85.4126 130.7 86.3458L146.245 94.7108C148.271 95.808 150.314 96.8728 152.374 97.9048C153.468 98.4625 154.946 99.2646 156.065 99.6949L156.182 143.119L156.201 186.948C156.18 193.786 155.987 200.99 156.124 207.801C156.184 209.962 156.214 212.124 156.217 214.286C155.833 214.115 155.42 213.925 155.056 213.721C147.81 209.645 140.544 205.639 133.146 201.841C130.852 200.663 128.445 199.068 126.087 198.081C125.864 196.845 125.906 194.804 125.904 193.504L125.878 187.714L125.827 165.321L125.995 83.7939Z" fill="#A0D4E6"/>
<path d="M130.7 86.3457L146.245 94.7107C148.271 95.8079 150.314 96.8727 152.374 97.9047C153.468 98.4624 154.946 99.2645 156.065 99.6948L156.182 143.119C156.025 143.779 156.057 144.639 156.053 145.332C154.925 146.432 153.724 146.974 152.526 147.881C150.594 149.342 148.668 151.106 146.925 152.803C144.968 154.708 142.71 156.336 140.735 158.165L136.024 162.489C134.313 164.057 132.907 165.466 130.894 166.693C130.684 161.791 130.888 156.815 130.844 151.915C130.828 150.167 130.958 147.285 130.816 145.625C130.85 143.572 130.831 141.527 130.823 139.474C130.783 128.427 130.914 117.33 130.771 106.285L130.603 89.5745C130.594 88.587 130.554 87.5996 130.51 86.6133C130.573 86.524 130.637 86.4348 130.7 86.3457Z" fill="#A6D9E9"/>
<path d="M125.995 83.7939C127.515 84.5205 129.306 85.4126 130.7 86.3458C130.637 86.4349 130.573 86.5242 130.51 86.6134C130.554 87.5997 130.594 88.5872 130.603 89.5746L130.771 106.285C130.914 117.33 130.783 128.427 130.823 139.474C130.831 141.527 130.85 143.572 130.816 145.625C130.697 147.014 130.736 148.905 130.732 150.329L130.715 157.97L130.876 185.375C130.881 188.585 131.002 191.797 130.904 195.006C131.445 195.226 132.234 195.629 132.651 195.886C134.902 197.278 155.042 208.018 156.008 207.866L156.124 207.801C156.184 209.962 156.214 212.124 156.217 214.286C155.833 214.115 155.42 213.925 155.056 213.721C147.81 209.645 140.544 205.639 133.146 201.841C130.852 200.663 128.445 199.068 126.087 198.081C125.864 196.845 125.906 194.804 125.904 193.504L125.878 187.714L125.827 165.321L125.995 83.7939Z" fill="#7CACC6"/>
<path d="M158.2 227.963C158.341 228.911 158.396 234.378 158.251 235.307C157.582 235.672 157.051 235.067 156.601 234.615C156.34 233.777 156.417 231.233 156.458 230.279C156.891 230.565 157.365 230.88 157.882 230.788C158.416 230.254 158.184 228.882 158.2 227.963Z" fill="#BAAAA9"/>
</svg>
